<svg width="285" height="285" viewBox="0 0 285 285" fill="none" xmlns="http://www.w3.org/2000/svg">
<path d="M36.2781 130.625H59.375C65.6739 130.625 71.7148 133.127 76.1688 137.581C80.6228 142.035 83.125 148.076 83.125 154.375V166.25C83.125 172.549 85.6272 178.59 90.0812 183.044C94.5352 187.498 100.576 190 106.875 190C113.174 190 119.215 192.502 123.669 196.956C128.123 201.41 130.625 207.451 130.625 213.75V248.722L36.2781 130.625ZM95 46.7281V65.3125C95 73.1861 98.1278 80.7372 103.695 86.3047C109.263 91.8722 116.814 95 124.688 95H130.625C136.924 95 142.965 97.5022 147.419 101.956C151.873 106.41 154.375 112.451 154.375 118.75C154.375 125.049 156.877 131.09 161.331 135.544C165.785 139.998 171.826 142.5 178.125 142.5C184.424 142.5 190.465 139.998 194.919 135.544C199.373 131.09 201.875 125.049 201.875 118.75C201.875 112.451 204.377 106.41 208.831 101.956C213.285 97.5022 219.326 95 225.625 95H238.26L95 46.7281ZM178.125 243.295V213.75C178.125 207.451 180.627 201.41 185.081 196.956C189.535 192.502 195.576 190 201.875 190H238.26L178.125 243.295ZM249.375 142.5C249.375 156.535 246.611 170.433 241.24 183.399C235.869 196.366 227.996 208.148 218.072 218.072C208.148 227.996 196.366 235.869 183.399 241.24C170.433 246.611 156.535 249.375 142.5 249.375C128.465 249.375 114.567 246.611 101.601 241.24C88.634 235.869 76.8522 227.996 66.928 218.072C57.0037 208.148 49.1313 196.366 43.7604 183.399C38.3894 170.433 35.625 156.535 35.625 142.5C35.625 114.155 46.885 86.9709 66.928 66.928C86.9709 46.885 114.155 35.625 142.5 35.625C170.845 35.625 198.029 46.885 218.072 66.928C238.115 86.9709 249.375 114.155 249.375 142.5Z" stroke="black" stroke-width="15" stroke-linecap="round" stroke-linejoin="round"/>
</svg>
